<svg width="100" height="100" viewBox="0 0 100 100" fill="none" xmlns="http://www.w3.org/2000/svg">
<path d="M97.6221 56.9277C96.563 56.7309 95.5421 57.4303 95.345 58.4908C91.2928 80.2803 72.2393 96.0938 50.0384 96.0938H50.0341C24.6177 96.0914 3.93777 75.4117 3.93543 49.9953C3.93425 37.6832 8.72781 26.1088 17.4329 17.4035C26.1374 8.69922 37.7091 3.90625 50.0204 3.90625H50.0249C55.0071 3.90664 59.8727 4.68906 64.5323 6.23535C62.1126 8.58652 60.6186 11.9713 60.6186 15.7914C60.6186 28.9574 78.687 37.7072 79.4561 38.0732C79.7186 38.198 80.0053 38.2627 80.2954 38.2627C80.3149 38.2627 80.3346 38.2625 80.3544 38.2619L80.4333 38.2596C80.7048 38.2514 80.9716 38.1865 81.2165 38.0695C81.629 37.8725 87.0395 35.2428 91.9436 30.8008C93.5065 34.2055 94.645 37.7855 95.3354 41.474C95.511 42.4129 96.3313 43.0682 97.2528 43.0682C97.3719 43.0682 97.493 43.0572 97.6145 43.0344C98.6749 42.8359 99.3735 41.8154 99.1749 40.7553C98.3346 36.2666 96.8835 31.9262 94.8567 27.8359C97.7608 24.4775 99.9712 20.4057 99.9712 15.7914C99.9712 8.52656 94.5678 2.83555 87.67 2.83555C84.896 2.83555 82.379 3.73711 80.2944 5.46094C78.6053 4.0666 76.1886 2.83555 72.9198 2.83555C71.4225 2.83555 69.9958 3.10371 68.6794 3.59785C62.7497 1.21094 56.4764 0.000585938 50.0251 0H50.0202C36.6665 0 24.1126 5.1998 14.6708 14.6414C5.22781 24.0846 0.0280031 36.6402 0.029175 49.9957C0.0303469 63.351 5.2325 75.9076 14.677 85.3521C24.1216 94.7967 36.6782 99.9988 50.0337 100H50.0384C74.1186 100 94.7895 82.8426 99.1852 59.2051C99.3825 58.1445 98.6827 57.125 97.6221 56.9277ZM78.8253 9.46543C79.1997 9.89316 79.7485 10.1322 80.3163 10.1248C80.8772 10.1207 81.4151 9.86816 81.7825 9.44473C81.7991 9.42754 81.8155 9.40996 81.8313 9.39199C83.4005 7.63359 85.3647 6.74199 87.6698 6.74199C92.3772 6.74199 96.0647 10.717 96.0647 15.7916C96.0647 25.118 83.6337 32.3717 80.3294 34.1346C77.004 32.3727 64.5247 25.1357 64.5247 15.7916C64.5247 10.717 68.2122 6.74199 72.9198 6.74199C75.2569 6.74199 77.2438 7.6582 78.8253 9.46543Z" fill="#373737"/>
</svg>
